# xmcd
#
# Track frame offsets: 
#        150
#        12072
#        26960
#        40112
#        52455
#        68417
#        80660
#        96015
#        105292
#        119257
#        134207
#        146035
#        153930
#        170407
#        192150
#        204980
#        221747
#        243700
#        260032
#        276710
#        291917
#        309855
#
# Disc length: 4394 seconds
#
# Revision: 0
# Processed by: cddbd v1.5.2PL0 Copyright (c) Steve Scherf et al.
# Submitted via: ExactAudioCopy v0.99pb4
#
DISCID=51112816
DTITLE=Johnny Young - Johnny Young and His Chicago Blues Band
DYEAR=1989
DGENRE=Blues
TTITLE0=Wild, Wild Woman
TTITLE1=Keep Your Nose Out Of My Business
TTITLE2=I'm Having A Ball
TTITLE3=My Trainfare Out Of Town
TTITLE4=I'm Doing All Right
TTITLE5=Stealin'
TTITLE6=Keep On Drinking
TTITLE7=Hot Dog!
TTITLE8=Come Early In The Morning
TTITLE9=Moaning And Groaning
TTITLE10=Cross-Cut Saw
TTITLE11=Slam Hammer
TTITLE12=Strange Girl
TTITLE13=Ring Around My Heart
TTITLE14=Sometimes I Cry
TTITLE15=Don't You Lie To Me
TTITLE16=On The Road Again
TTITLE17=Drinking Straight Whiskey
TTITLE18=Walter's Boogie
TTITLE19=Stockyard Blues
TTITLE20=Sleeping With The Devil
TTITLE21=Fumbling Around
EXTD=
EXTT0=
EXTT1=
EXTT2=
EXTT3=
EXTT4=
EXTT5=
EXTT6=
EXTT7=
EXTT8=
EXTT9=
EXTT10=
EXTT11=
EXTT12=
EXTT13=
EXTT14=
EXTT15=
EXTT16=
EXTT17=
EXTT18=
EXTT19=
EXTT20=
EXTT21=
PLAYORDER=
